<svg xmlns="http://www.w3.org/2000/svg" viewBox="0 0 487.51 1018.28"><title>Asset 16</title><g id="Layer_2" data-name="Layer 2"><g id="Layer_1-2" data-name="Layer 1"><path d="M21.54,887.5H466V104.31H21.54Zm9-774.19H457V878.5H30.54Z"/><path d="M433.54,0H54A54,54,0,0,0,0,54V964.31a54,54,0,0,0,54,54H433.54a54,54,0,0,0,54-54V54A54,54,0,0,0,433.54,0Zm45,964.31a45,45,0,0,1-45,45H54a45,45,0,0,1-45-45V54A45,45,0,0,1,54,9H433.54a45,45,0,0,1,45,45Z"/><path d="M243.75,905a39.37,39.37,0,1,0,39.37,39.37A39.41,39.41,0,0,0,243.75,905Zm0,69.73a30.37,30.37,0,1,1,30.37-30.36A30.4,30.4,0,0,1,243.75,974.69Z"/><path d="M411.58,412.55H75.92a19.37,19.37,0,0,0-19.37,19.37V542.85H431V431.92A19.37,19.37,0,0,0,411.58,412.55Z"/><path d="M56.55,578.19a17.2,17.2,0,0,0,17.2,17.2H239.14V552.15H56.55Z"/><path d="M248.36,595.39h165.4A17.2,17.2,0,0,0,431,578.19v-26H248.36Z"/></g></g></svg>