<?xml version="1.0" encoding="utf-8"?>
<!-- Generator: Adobe Illustrator 22.0.0, SVG Export Plug-In . SVG Version: 6.00 Build 0)  -->
<svg version="1.1" id="Layer_1" xmlns="http://www.w3.org/2000/svg" xmlns:xlink="http://www.w3.org/1999/xlink" x="0px" y="0px"
	 viewBox="0 0 71.9 89.6" style="enable-background:new 0 0 71.9 89.6;" xml:space="preserve">
<style type="text/css">
	.st0{fill:#EB4A56;}
	.st1{fill:#FFFFFF;}
</style>
<g>
	<path class="st1" d="M56.1,48.6c-0.1-0.2-0.4-0.2-0.5,0l-4.2,6.3c-0.1,0.1-0.1,0.2,0,0.3l11,15.8c0.9,1.3,1.3,2.9,1,4.5
		c-0.3,1.6-1.2,3-2.5,3.9l-0.3,0.2c-1,0.7-2.2,1.1-3.4,1.1c-2,0-3.9-1-5-2.6L44,66.5c-0.1-0.2-0.4-0.2-0.5,0l-4.2,6.3
		c-0.1,0.1-0.1,0.2,0,0.3l6.5,9.3c2.7,3.8,6.9,5.9,11.3,5.9c2.7,0,5.4-0.8,7.8-2.4l0.3-0.2c6.2-4.3,7.8-12.8,3.5-19L56.1,48.6z"/>
	<path class="st1" d="M15.7,1.3L15.7,1.3c-0.4,0-0.8,0-1.2,0c-0.1,0-0.3,0-0.4,0.1c-6.8,0.8-12,6.5-12,13.5v46.9
		c0,0.2,0.3,0.3,0.4,0.1L9.1,53c0,0,0-0.1,0-0.1V15.2c0-3.7,3-6.8,6.8-6.8c2.9,0,5.4,2,6.2,4.6c0.2,0.6,0.3,1.2,0.3,1.9v27.1v6.7
		v5.1v6.7v14.3c0,1.8-0.7,3.4-1.9,4.6c-0.1,0.1-0.1,0.1-0.2,0.2c-1.1,1-2.5,1.5-4.1,1.5c-1.2,0-2.4-0.4-3.4-1l-0.5-0.3
		c-1.4-0.9-2.3-2.3-2.6-3.9c-0.3-1.6,0-3.2,0.9-4.6l7-10.4c0.2-0.2,0.2-0.5,0.2-0.8V47.5c0-0.2-0.3-0.3-0.5-0.1L9.7,59v0l0,0
		l-0.5,0.8v0L5,65.7c-1.9,2.7-2.9,5.9-2.9,9.1c0,1.3,0.2,2.6,0.5,3.8c0,0.1,0,0.1,0.1,0.2l0.2,0.5c0.1,0.2,0.2,0.5,0.3,0.7
		c0.1,0.2,0.2,0.5,0.3,0.7c0.1,0.2,0.2,0.4,0.3,0.6c0.2,0.4,0.4,0.8,0.7,1.1c0.1,0.2,0.3,0.4,0.4,0.5c0.1,0.2,0.3,0.4,0.4,0.5
		c0.1,0.2,0.3,0.3,0.4,0.5c0.1,0.2,0.3,0.3,0.5,0.5c0.1,0.1,0.2,0.2,0.3,0.3c0.5,0.5,1.1,1,1.7,1.4c2.2,1.5,4.8,2.3,7.6,2.3h0
		c7.7,0,13.9-6.2,13.9-13.9V15.2C29.6,7.5,23.4,1.3,15.7,1.3z"/>
	<path class="st1" d="M48.8,51.5l4.6-6.8L69,21.9c4.3-6.3,2.6-14.9-3.8-19.2l-0.5-0.3C62.4,0.8,59.7,0,57,0c-4.4,0-8.8,2.1-11.5,6.1
		l-9.5,13.6l-2,2.9c-0.2,0.3-0.3,0.5-0.3,0.8v12.1c0,0.4,0.5,0.5,0.7,0.2l6.2-9.3L52,10.4c1.1-1.7,3-2.7,5.1-2.7
		c1.2,0,2.4,0.4,3.4,1l0.5,0.4c1.4,0.9,2.3,2.3,2.6,3.9c0.3,1.6,0,3.2-0.9,4.6l-14,20.3l-4.6,6.8l-7.5,11.1l-2.5,3.7
		c-0.2,0.2-0.2,0.5-0.2,0.8v5V72c0,0.5,0.6,0.7,0.9,0.3l6.5-9.7L48.8,51.5z"/>
</g>
</svg>
